<svg width="12" height="8" viewBox="0 0 12 8" fill="none" xmlns="http://www.w3.org/2000/svg">
<g id="chevron-down">
<path id="Vector" d="M6.00018 7.25001C5.90164 7.25047 5.804 7.23125 5.71299 7.19347C5.62197 7.1557 5.53942 7.10012 5.47018 7.03001L0.47018 2.03001C0.370455 1.88411 0.325452 1.70768 0.34311 1.53185C0.360767 1.35601 0.43995 1.19205 0.566693 1.06889C0.693436 0.945739 0.859597 0.871295 1.03587 0.858692C1.21214 0.846088 1.38721 0.896136 1.53018 1.00001L6.00018 5.44001L10.4702 1.00001C10.6111 0.908617 10.7787 0.867196 10.946 0.882384C11.1133 0.897571 11.2707 0.968488 11.3929 1.08377C11.5151 1.19905 11.595 1.35201 11.6199 1.51815C11.6448 1.68428 11.6132 1.85397 11.5302 2.00001L6.53018 7.00001C6.46351 7.07557 6.38212 7.13672 6.29098 7.17971C6.19984 7.22269 6.10089 7.24662 6.00018 7.25001Z" fill="#1E293B"/>
</g>
</svg>
