<svg width="8" height="8" viewBox="0 0 8 8" fill="none" xmlns="http://www.w3.org/2000/svg">
<path fill-rule="evenodd" clip-rule="evenodd" d="M0.823447 2.32296C0.84667 2.29968 0.874258 2.28121 0.90463 2.2686C0.935003 2.256 0.967563 2.24951 1.00045 2.24951C1.03333 2.24951 1.06589 2.256 1.09626 2.2686C1.12664 2.28121 1.15422 2.29968 1.17745 2.32296L4.00045 5.14646L6.82345 2.32296C6.84669 2.29971 6.87429 2.28128 6.90465 2.2687C6.93502 2.25612 6.96758 2.24964 7.00045 2.24964C7.03332 2.24964 7.06587 2.25612 7.09624 2.2687C7.12661 2.28128 7.1542 2.29971 7.17745 2.32296C7.20069 2.3462 7.21913 2.3738 7.23171 2.40417C7.24429 2.43454 7.25076 2.46709 7.25076 2.49996C7.25076 2.53283 7.24429 2.56538 7.23171 2.59575C7.21913 2.62612 7.20069 2.65371 7.17745 2.67696L4.17745 5.67696C4.15422 5.70024 4.12664 5.71871 4.09626 5.73131C4.06589 5.74392 4.03333 5.75041 4.00045 5.75041C3.96756 5.75041 3.935 5.74392 3.90463 5.73131C3.87426 5.71871 3.84667 5.70024 3.82345 5.67696L0.823447 2.67696C0.800165 2.65374 0.781694 2.62615 0.769091 2.59578C0.756487 2.5654 0.75 2.53284 0.75 2.49996C0.75 2.46707 0.756487 2.43451 0.769091 2.40414C0.781694 2.37377 0.800165 2.34618 0.823447 2.32296Z" fill="white" stroke="white" stroke-width="0.7"/>
</svg>
