<svg width="20" height="20" viewBox="0 0 20 20" fill="none" xmlns="http://www.w3.org/2000/svg">
<path d="M5.62744 11.25C6.12472 11.25 6.60164 11.0525 6.95327 10.7008C7.3049 10.3492 7.50244 9.87228 7.50244 9.375C7.50244 8.87772 7.3049 8.40081 6.95327 8.04917C6.60164 7.69754 6.12472 7.5 5.62744 7.5C5.13016 7.5 4.65325 7.69754 4.30162 8.04917C3.94999 8.40081 3.75244 8.87772 3.75244 9.375C3.75244 9.87228 3.94999 10.3492 4.30162 10.7008C4.65325 11.0525 5.13016 11.25 5.62744 11.25Z" fill="white"/>
<path d="M17.5024 16.25C17.5024 16.913 17.239 17.5489 16.7702 18.0178C16.3014 18.4866 15.6655 18.75 15.0024 18.75H2.50244C1.8394 18.75 1.20352 18.4866 0.734674 18.0178C0.265834 17.5489 0.00244141 16.913 0.00244141 16.25V6.25C0.00244107 5.58739 0.26549 4.95189 0.73379 4.48312C1.20209 4.01435 1.83733 3.75066 2.49994 3.75C2.49994 3.08696 2.76333 2.45107 3.23217 1.98223C3.70102 1.51339 4.3369 1.25 4.99994 1.25H17.4999C18.163 1.25 18.7989 1.51339 19.2677 1.98223C19.7365 2.45107 19.9999 3.08696 19.9999 3.75V13.75C19.9999 14.4126 19.7369 15.0481 19.2686 15.5169C18.8003 15.9857 18.165 16.2493 17.5024 16.25ZM17.4999 2.5H4.99994C4.66842 2.5 4.35048 2.6317 4.11606 2.86612C3.88164 3.10054 3.74994 3.41848 3.74994 3.75H15.0024C15.6655 3.75 16.3014 4.01339 16.7702 4.48223C17.239 4.95107 17.5024 5.58696 17.5024 6.25V15C17.8335 14.9993 18.1508 14.8673 18.3847 14.633C18.6186 14.3987 18.7499 14.0811 18.7499 13.75V3.75C18.7499 3.41848 18.6182 3.10054 18.3838 2.86612C18.1494 2.6317 17.8315 2.5 17.4999 2.5ZM2.50244 5C2.17092 5 1.85298 5.1317 1.61856 5.36612C1.38414 5.60054 1.25244 5.91848 1.25244 6.25V16.25L4.55994 13.3075C4.66211 13.2057 4.79634 13.1424 4.93986 13.1283C5.08339 13.1141 5.22739 13.1501 5.34744 13.23L8.67244 15.4463L13.3099 10.8088C13.4026 10.716 13.5222 10.6547 13.6516 10.6336C13.781 10.6125 13.9138 10.6327 14.0312 10.6913L16.2524 13.125V6.25C16.2524 5.91848 16.1207 5.60054 15.8863 5.36612C15.6519 5.1317 15.334 5 15.0024 5H2.50244Z" fill="white"/>
</svg>
